<?xml version="1.0" encoding="utf-8"?>
<!-- Generator: Adobe Illustrator 24.0.0, SVG Export Plug-In . SVG Version: 6.00 Build 0)  -->
<svg version="1.1" xmlns="http://www.w3.org/2000/svg" xmlns:xlink="http://www.w3.org/1999/xlink" x="0px" y="0px"
	 viewBox="0 0 500 500" style="enable-background:new 0 0 500 500;" xml:space="preserve">
<style type="text/css">
	.st0{fill:url(#SVGID_1_);}
	.st1{fill:#F8F8F8;}
</style>
<g id="cresta">
	<g>
		<linearGradient id="SVGID_1_" gradientUnits="userSpaceOnUse" x1="198.5807" y1="87.6193" x2="198.5807" y2="497.6798">
			<stop  offset="0.2219" style="stop-color:#FCB3D7"/>
			<stop  offset="1" style="stop-color:#78EDFF"/>
		</linearGradient>
		<path class="st0" d="M229.3,486.05c15.57,1.33,31.76-0.84,46.21-7.9c16.37-8,30.5-22.27,36.05-39.03
			c5.96-17.98,2.07-38.84-5.61-56.72c-16.63-38.75-51-63.58-84.15-90.38c-20.5-16.57-40.53-33.89-51.11-56.72
			c-12.6-27.19-11.79-62.18,0.21-90.92c5.49-13.14,13.32-24.97,23.73-34.14c7.6-6.69,16.57-11.96,25.96-15.71
			c-20.03,2.24-36.51,7.31-49.78,16.58c-15.24,10.64-26.24,26.81-33.97,44.35c-8.14,18.44-12.67,38.39-23.93,54.61
			c-7.7,11.1-18.56,20.46-30.19,26.69c10.35-2.87,21.01-4.84,30.48-9.99c9-4.89,16.92-12.65,24.7-19.26
			c-12.54,16.57-21.77,36.61-23.27,57.84c-1.52,21.45,4.84,44.1,16.29,60.83c9.02,13.18,21.19,22.67,34.57,35.57
			c11.68,11.25,24.28,25.08,20.28,38.23c-1.23,4.04-4.02,8.01-6.98,11.3c10.62-1.7,22.7-6.43,29.36-15.37
			c7.15-9.6,8.04-24.05,4.63-35.98c-5.11-17.86-19.88-30.06-33.98-40.06c25.17,13.37,46.72,32.05,67.48,52.52
			c13.57,13.38,26.8,27.53,31.91,45.87c3.94,14.16,3.04,30.8-4.66,42.88C264.45,475.33,245.97,483.2,229.3,486.05z"/>
	</g>
</g>
<g id="cuerpo">
	<g>
		<path class="st1" d="M229.3,486.05c15.57,1.33,31.76-0.84,46.21-7.9c16.37-8,30.5-22.27,36.05-39.03
			c5.96-17.98,2.07-38.84-5.61-56.72c-16.63-38.75-51-63.58-84.15-90.38c-20.5-16.57-40.53-33.89-51.11-56.72
			c-12.6-27.19-11.79-62.18,0.21-90.92c5.49-13.14,13.32-24.97,23.73-34.14c7.6-6.69,16.57-11.96,25.96-15.71l-0.28,11.26
			c0.16,5.59,1.01,11.44,2.69,17.29c-0.58-14.79,1.6-30.49,8.64-43.54c10.97-20.35,33.74-34.27,55.84-40.89
			c13.11,29.97,6.13,54.64,0.31,67.81L417.3,7.29l-88.57,114.54c7.58,7.25,14.25,15.71,18.42,25.11
			c5.01,11.32,6.39,24.02,8.99,36.31c2.24,10.57,5.4,20.84,9.97,30.58c3.01,6.55,6.85,12.88,11.42,18.72
			c4.4,5.52,9.51,10.36,14.6,15.6c1.38,1.43,2.76,2.88,3.58,4.58c1.16,2.41,1.16,5.32,1.29,8.16c0.17,3.73,0.54,7.35-0.14,10.87
			c-0.53,2.75-1.73,5.58-3.58,8.01c-5.28,6.97-15.45,10.36-24.18,8.87l-3.12-0.75c-0.54,3.83-1.84,7.69-4.47,10.48
			c-4.55,4.82-13.11,6.42-19.17,4.15c-6.63-2.49-10.28-9.61-14.6-15.74c-4-5.79-9.05-10.99-14.74-15.17
			c-10.08-7.33-22.38-11.34-34.34-16.74c-11.2-5.06-22.12-11.34-29.05-20.89c-7.27-10.03-10.15-23.68-10.02-36.2
			c-5.67,37.97,23.59,70.73,44.94,93.25c17.35,18.3,29.48,29.82,39.18,43.43c14.66,20.57,23.77,45.91,23.27,71.8
			c-0.39,20.05-6.53,40.43-19.28,55.18c-12.84,14.87-32.38,24.03-52.19,27.26c-5.78,0.91-11.47,1.33-16.99,1.33
			C249.13,490.05,239.21,488.82,229.3,486.05z"/>
	</g>
</g>
</svg>
